<svg xmlns="http://www.w3.org/2000/svg" xmlns:xlink="http://www.w3.org/1999/xlink" width="350" zoomAndPan="magnify" viewBox="0 0 262.5 112.499997" height="150" preserveAspectRatio="xMidYMid meet" version="1.0"><defs><g/><clipPath id="fe6626b3e9"><path d="M 251.089844 65.660156 L 261.671875 65.660156 L 261.671875 76.238281 L 251.089844 76.238281 Z M 251.089844 65.660156 " clip-rule="nonzero"/></clipPath><clipPath id="a47b1cafed"><path d="M 256.378906 65.660156 C 253.457031 65.660156 251.089844 68.027344 251.089844 70.949219 C 251.089844 73.871094 253.457031 76.238281 256.378906 76.238281 C 259.300781 76.238281 261.671875 73.871094 261.671875 70.949219 C 261.671875 68.027344 259.300781 65.660156 256.378906 65.660156 Z M 256.378906 65.660156 " clip-rule="nonzero"/></clipPath><clipPath id="446336921f"><path d="M 39 38.808594 L 63 38.808594 L 63 70 L 39 70 Z M 39 38.808594 " clip-rule="nonzero"/></clipPath><clipPath id="732821c8d7"><path d="M 156 47 L 170 47 L 170 60.847656 L 156 60.847656 Z M 156 47 " clip-rule="nonzero"/></clipPath><clipPath id="dd8ee4195e"><path d="M 147 50 L 157 50 L 157 60.847656 L 147 60.847656 Z M 147 50 " clip-rule="nonzero"/></clipPath></defs><g clip-path="url(#fe6626b3e9)"><g clip-path="url(#a47b1cafed)"><path fill="#7ed957" d="M 251.089844 65.660156 L 261.671875 65.660156 L 261.671875 76.238281 L 251.089844 76.238281 Z M 251.089844 65.660156 " fill-opacity="1" fill-rule="nonzero"/></g></g><path fill="#7ed957" d="M 73.515625 74.40625 C 69.097656 81.613281 63.679688 82.570312 58.542969 80.410156 C 58.574219 79.367188 58.65625 78.246094 58.808594 77.066406 C 59.8125 69.328125 69.675781 56.484375 69.792969 56.332031 C 69.675781 56.433594 59.683594 64.753906 56.308594 75.148438 C 55.878906 76.46875 55.59375 77.648438 55.421875 78.703125 C 50.070312 75.113281 47.539062 69.5 52.457031 61.484375 C 57.582031 53.132812 74.671875 48.902344 74.671875 48.902344 C 74.671875 48.902344 78.640625 66.054688 73.515625 74.40625 Z M 73.515625 74.40625 " fill-opacity="1" fill-rule="nonzero"/><g clip-path="url(#446336921f)"><path fill="#7ed957" d="M 62.140625 51.765625 C 58.375 53.546875 54.515625 55.917969 52.101562 58.867188 C 48.496094 53.230469 45.433594 47.191406 45.363281 47.015625 C 45.394531 47.199219 46.964844 53.917969 50.777344 60.800781 C 48.808594 64.1875 48.179688 67.132812 48.539062 69.671875 C 46.011719 68.796875 43.644531 66.707031 41.632812 62.964844 C 37.246094 54.804688 41.925781 38.824219 41.925781 38.824219 C 41.925781 38.824219 57.648438 43.6875 62.140625 51.765625 Z M 62.140625 51.765625 " fill-opacity="1" fill-rule="nonzero"/></g><g clip-path="url(#732821c8d7)"><path fill="#7ed957" d="M 157.683594 59.910156 C 157.15625 58.695312 156.367188 56.324219 157.140625 53.792969 C 158.40625 49.640625 163.375 46.664062 169.355469 47.046875 C 170.152344 52.113281 168.195312 56.859375 164.507812 58.976562 C 162.023438 60.402344 159.449219 60.238281 158.230469 60.066406 C 159.476562 59.121094 160.878906 57.90625 162.277344 56.367188 C 164.441406 53.996094 165.882812 51.640625 166.835938 49.757812 C 165.464844 51.671875 163.816406 53.738281 161.847656 55.851562 C 160.425781 57.375 159.023438 58.722656 157.683594 59.910156 Z M 157.683594 59.910156 " fill-opacity="1" fill-rule="nonzero"/></g><g clip-path="url(#dd8ee4195e)"><path fill="#7ed957" d="M 156.089844 60.042969 C 155.15625 60.324219 153.359375 60.695312 151.578125 59.917969 C 148.660156 58.640625 146.910156 54.761719 147.699219 50.433594 C 151.464844 50.285156 154.757812 52.117188 155.988281 54.988281 C 156.816406 56.921875 156.476562 58.78125 156.25 59.65625 C 155.667969 58.667969 154.898438 57.542969 153.898438 56.390625 C 152.347656 54.609375 150.753906 53.359375 149.464844 52.5 C 150.742188 53.664062 152.109375 55.042969 153.480469 56.660156 C 154.472656 57.824219 155.335938 58.964844 156.089844 60.042969 Z M 156.089844 60.042969 " fill-opacity="1" fill-rule="nonzero"/></g><path stroke-linecap="butt" transform="matrix(0.599881, 0, 0, 0.599881, 67.720104, 43.462989)" fill="none" stroke-linejoin="miter" d="M 37.974023 17.669355 C 41.672673 17.669355 44.804804 18.294479 47.363906 19.544727 C 49.923007 20.788463 51.856984 22.468484 53.172349 24.584789 C 54.487714 26.694582 55.151908 29.084379 55.151908 31.747667 C 55.151908 33.629551 54.845858 35.459341 54.240269 37.243549 C 53.641192 39.021245 52.664436 40.610102 51.310001 42.016631 C 49.962077 43.416648 48.197404 44.53015 46.00947 45.350625 C 43.821537 46.1711 41.145225 46.574826 37.974023 46.574826 L 34.30142 46.574826 L 34.30142 53.672588 C 34.30142 54.030731 34.171186 54.343293 33.897694 54.610273 C 33.630714 54.870742 33.318152 55.000976 32.960008 55.000976 L 24.592464 55.000976 C 24.23432 55.000976 23.921758 54.870742 23.654778 54.610273 C 23.394309 54.343293 23.264075 54.030731 23.264075 53.672588 L 23.264075 18.997744 C 23.264075 18.646111 23.394309 18.333549 23.654778 18.073081 C 23.921758 17.806101 24.23432 17.669355 24.592464 17.669355 Z M 37.283782 37.39983 C 38.742405 37.39983 39.908 37.191455 40.774057 36.787729 C 41.653138 36.377492 42.31082 35.863067 42.753617 35.250966 C 43.196413 34.625842 43.48944 34.00723 43.626185 33.401641 C 43.775955 32.789541 43.847583 32.275116 43.847583 31.851855 C 43.847583 31.285336 43.678279 30.61463 43.33967 29.833225 C 43.001061 29.05182 42.356402 28.355068 41.412205 27.749479 C 40.474519 27.14389 39.06799 26.83784 37.179595 26.83784 L 34.30142 26.83784 L 34.30142 37.39983 Z M 87.580213 35.159802 C 87.612771 35.374689 87.632307 35.589575 87.632307 35.810973 C 87.632307 36.019348 87.632307 36.227722 87.632307 36.44912 L 87.632307 53.672588 C 87.632307 54.030731 87.508584 54.343293 87.254627 54.610273 C 87.000671 54.870742 86.681597 55.000976 86.290895 55.000976 L 78.450799 55.000976 C 78.099166 55.000976 77.786604 54.870742 77.519624 54.610273 C 77.259156 54.343293 77.128922 54.030731 77.128922 53.672588 L 77.128922 52.604667 C 76.165189 53.627006 74.849824 54.395387 73.19585 54.896789 C 71.541877 55.391678 69.972555 55.639123 68.481374 55.639123 C 68.058113 55.639123 67.387407 55.547959 66.475768 55.365632 C 65.570641 55.189815 64.61342 54.838183 63.597593 54.310735 C 62.588278 53.770263 61.728733 52.975835 61.018957 51.914426 C 60.309181 50.846506 59.951037 49.420442 59.951037 47.642746 C 59.951037 45.578535 60.380809 43.872467 61.227331 42.524544 C 62.080365 41.170109 63.161309 40.121724 64.483185 39.372877 C 65.805062 38.630543 67.13345 38.148676 68.481374 37.93379 C 69.835809 37.757974 71.333502 37.621228 72.987476 37.517041 C 74.64145 37.39983 76.021932 37.328201 77.128922 37.295643 C 77.128922 36.761682 77.018223 36.227722 76.803336 35.680739 C 76.594962 35.120732 76.204259 34.658401 75.631229 34.287234 C 75.058199 33.909554 74.18563 33.727227 73.013523 33.727227 C 71.411642 33.727227 69.91395 33.948625 68.507421 34.391421 C 67.100892 34.834217 66.006925 35.211896 65.22552 35.537481 C 64.593884 35.784926 64.151088 35.628645 63.897132 35.055615 C 63.825503 34.912357 63.695269 34.612819 63.493406 34.156999 C 63.304566 33.688156 63.08968 33.16722 62.855258 32.607213 C 62.620837 32.034183 62.412462 31.526269 62.230134 31.083473 C 62.054318 30.640677 61.950131 30.360674 61.917573 30.249975 C 61.845944 30.0416 61.83292 29.787643 61.865479 29.481593 C 61.898037 29.175543 62.080365 28.954145 62.399439 28.817399 C 63.005028 28.498325 63.89062 28.107623 65.043192 27.645292 C 66.195765 27.18296 67.556711 26.785746 69.119521 26.447137 C 70.688843 26.108529 72.401422 25.939224 74.250747 25.939224 C 76.341005 25.939224 78.353123 26.251786 80.2871 26.87691 C 82.234101 27.495522 83.868539 28.47879 85.196928 29.833225 C 86.531828 31.174637 87.326256 32.952333 87.580213 35.159802 Z M 73.495389 48.489268 C 74.628426 48.489268 75.448901 48.261358 75.943791 47.799027 C 76.445193 47.336696 76.764266 46.880876 76.907524 46.418545 C 77.050781 45.949702 77.128922 45.715281 77.128922 45.715281 L 77.128922 42.459427 C 77.128922 42.459427 76.764266 42.459427 76.034955 42.459427 C 75.305644 42.459427 74.49168 42.537567 73.599576 42.680825 C 72.713984 42.824082 72.004208 43.104086 71.47676 43.527347 C 70.799542 44.03526 70.408839 44.686431 70.317676 45.480859 C 70.226512 46.281799 70.44791 46.985064 70.98187 47.590652 C 71.51583 48.18973 72.35584 48.489268 73.495389 48.489268 Z M 94.821232 55.000976 C 94.4696 55.000976 94.157038 54.877253 93.883546 54.63632 C 93.623078 54.382364 93.492844 54.082825 93.492844 53.724681 L 93.492844 28.009947 C 93.492844 27.619245 93.623078 27.300171 93.883546 27.059238 C 94.157038 26.805281 94.4696 26.681559 94.821232 26.681559 L 102.661328 26.681559 C 103.052031 26.681559 103.371104 26.805281 103.625061 27.059238 C 103.879017 27.300171 104.00274 27.619245 104.00274 28.009947 L 104.00274 29.351359 C 104.393442 28.778329 105.03159 28.237857 105.917182 27.723432 C 106.809286 27.209007 107.812089 26.785746 108.912568 26.447137 C 110.013046 26.108529 111.09399 25.939224 112.155398 25.939224 C 115.71079 25.939224 118.26338 26.831328 119.806655 28.609024 C 121.356441 30.380209 122.124823 32.90024 122.124823 36.175629 L 122.124823 53.724681 C 122.124823 54.082825 122.0011 54.382364 121.747144 54.63632 C 121.50621 54.877253 121.187137 55.000976 120.796434 55.000976 L 112.96285 55.000976 C 112.604706 55.000976 112.292144 54.877253 112.025164 54.63632 C 111.751672 54.382364 111.621438 54.082825 111.621438 53.724681 L 111.621438 37.985884 C 111.621438 36.996104 111.40004 36.234234 110.957244 35.706786 C 110.514448 35.166314 109.993511 34.795147 109.407457 34.586772 C 108.827915 34.365374 108.306979 34.261187 107.844647 34.261187 C 107.343246 34.261187 106.783239 34.365374 106.17765 34.586772 C 105.578573 34.795147 105.064148 35.166314 104.640887 35.706786 C 104.217626 36.234234 104.00274 36.996104 104.00274 37.985884 L 104.00274 53.724681 C 104.00274 54.082825 103.879017 54.382364 103.625061 54.63632 C 103.371104 54.877253 103.052031 55.000976 102.661328 55.000976 Z M 157.594095 26.681559 C 157.952239 26.681559 158.258289 26.805281 158.518757 27.059238 C 158.785737 27.300171 158.922483 27.619245 158.922483 28.009947 L 158.922483 51.536747 C 158.922483 55.762846 158.173637 59.201027 156.682456 61.851293 C 155.191275 64.495046 152.54101 66.389953 148.738172 67.536013 C 147.533506 67.894157 146.048837 68.161137 144.290676 68.330442 C 142.526003 68.506258 140.917611 68.525793 139.458989 68.382535 C 137.609664 68.213231 135.740804 67.809505 133.85892 67.184381 C 131.977036 66.559257 130.251434 65.751805 128.688624 64.762026 C 128.441179 64.579698 128.25234 64.345277 128.128617 64.058761 C 128.011406 63.78527 128.017918 63.427126 128.154664 62.997353 C 128.258851 62.788978 128.454203 62.346182 128.740718 61.668965 C 129.027233 60.991747 129.32026 60.301506 129.613287 59.611265 C 129.919337 58.914512 130.108176 58.478228 130.186317 58.308923 C 130.394691 57.918221 130.668183 57.696823 131.006792 57.644729 C 131.345401 57.592636 131.690521 57.651241 132.048665 57.827057 C 133.292401 58.400087 134.464509 58.947071 135.564987 59.481031 C 136.665466 60.014991 137.86362 60.321041 139.146427 60.39267 C 142.167859 60.561974 144.433933 60.151737 145.94465 59.155445 C 147.448854 58.165666 148.243282 56.954488 148.3084 55.534936 C 148.380028 54.82516 148.412587 54.25213 148.412587 53.828869 C 148.412587 53.405608 148.412587 53.190721 148.412587 53.190721 C 147.917697 53.509795 147.39676 53.815845 146.843265 54.10236 C 146.296282 54.382364 145.736275 54.629809 145.176268 54.844695 C 143.750204 55.372143 142.200418 55.639123 140.526909 55.639123 C 138.859912 55.639123 137.32966 55.372143 135.942666 54.844695 C 133.774268 54.030731 131.957501 52.72839 130.498879 50.950694 C 129.3984 49.596258 128.525831 48.052984 127.881172 46.314358 C 127.249537 44.56922 126.930463 42.719895 126.930463 40.753359 C 126.930463 38.024954 127.516517 35.537481 128.688624 33.297454 C 129.860731 31.057426 131.469123 29.273219 133.507288 27.94483 C 135.558476 26.60993 137.896179 25.939224 140.526909 25.939224 C 141.490641 25.939224 142.506468 26.108529 143.574388 26.447137 C 144.642308 26.785746 145.619064 27.222031 146.504656 27.749479 C 147.390249 28.276927 148.021884 28.810887 148.412587 29.351359 L 148.412587 28.009947 C 148.412587 27.619245 148.542821 27.300171 148.790266 27.059238 C 149.044223 26.805281 149.350273 26.681559 149.701905 26.681559 Z M 142.81903 34.261187 C 141.438548 34.261187 140.351093 34.638866 139.563176 35.407247 C 138.781771 36.169117 138.228276 37.061221 137.909202 38.077047 C 137.59664 39.07985 137.440359 39.971954 137.440359 40.753359 C 137.440359 42.752454 137.941761 44.328287 138.951075 45.480859 C 139.966902 46.639943 141.25622 47.212973 142.81903 47.212973 C 144.629285 47.212973 146.016278 46.568314 146.973499 45.272485 C 147.93072 43.970143 148.412587 42.465938 148.412587 40.753359 C 148.412587 39.939396 148.262818 39.027757 147.956767 38.024954 C 147.66374 37.009127 147.116757 36.123535 146.322329 35.3812 C 145.521389 34.632354 144.355793 34.261187 142.81903 34.261187 Z M 191.89126 35.159802 C 191.923818 35.374689 191.943353 35.589575 191.943353 35.810973 C 191.943353 36.019348 191.943353 36.227722 191.943353 36.44912 L 191.943353 53.672588 C 191.943353 54.030731 191.819631 54.343293 191.565674 54.610273 C 191.311718 54.870742 190.992644 55.000976 190.601942 55.000976 L 182.761845 55.000976 C 182.410213 55.000976 182.097651 54.870742 181.824159 54.610273 C 181.563691 54.343293 181.433457 54.030731 181.433457 53.672588 L 181.433457 52.604667 C 180.469724 53.627006 179.160871 54.395387 177.500385 54.896789 C 175.852923 55.391678 174.283602 55.639123 172.792421 55.639123 C 172.362648 55.639123 171.698454 55.547959 170.786815 55.365632 C 169.881687 55.189815 168.924466 54.838183 167.90864 54.310735 C 166.899325 53.770263 166.03978 52.975835 165.330004 51.914426 C 164.620228 50.846506 164.262084 49.420442 164.262084 47.642746 C 164.262084 45.578535 164.685345 43.872467 165.538378 42.524544 C 166.391412 41.170109 167.472356 40.121724 168.794232 39.372877 C 170.109597 38.630543 171.444497 38.148676 172.792421 37.93379 C 174.146856 37.757974 175.644549 37.621228 177.292011 37.517041 C 178.952496 37.39983 180.332978 37.328201 181.433457 37.295643 C 181.433457 36.761682 181.32927 36.227722 181.107872 35.680739 C 180.899497 35.120732 180.508794 34.658401 179.935764 34.287234 C 179.362734 33.909554 178.490165 33.727227 177.318058 33.727227 C 175.722689 33.727227 174.224996 33.948625 172.818468 34.391421 C 171.411939 34.834217 170.317972 35.211896 169.536567 35.537481 C 168.89842 35.784926 168.462135 35.628645 168.208178 35.055615 C 168.13655 34.912357 168.006316 34.612819 167.804453 34.156999 C 167.615613 33.688156 167.400727 33.16722 167.166305 32.607213 C 166.931884 32.034183 166.723509 31.526269 166.541181 31.083473 C 166.365365 30.640677 166.261178 30.360674 166.228619 30.249975 C 166.156991 30.0416 166.143967 29.787643 166.176526 29.481593 C 166.209084 29.175543 166.391412 28.954145 166.710486 28.817399 C 167.316075 28.498325 168.201667 28.107623 169.354239 27.645292 C 170.506811 27.18296 171.867758 26.785746 173.430568 26.447137 C 174.99989 26.108529 176.712469 25.939224 178.555282 25.939224 C 180.652052 25.939224 182.66417 26.251786 184.598147 26.87691 C 186.545148 27.495522 188.179586 28.47879 189.507975 29.833225 C 190.842875 31.174637 191.637303 32.952333 191.89126 35.159802 Z M 177.799924 48.489268 C 178.939473 48.489268 179.753436 48.261358 180.248326 47.799027 C 180.756239 47.336696 181.075313 46.880876 181.212059 46.418545 C 181.361828 45.949702 181.433457 45.715281 181.433457 45.715281 L 181.433457 42.459427 C 181.433457 42.459427 181.068801 42.459427 180.33949 42.459427 C 179.610179 42.459427 178.802727 42.537567 177.904111 42.680825 C 177.025031 42.824082 176.315255 43.104086 175.787806 43.527347 C 175.110589 44.03526 174.719886 44.686431 174.628722 45.480859 C 174.537558 46.281799 174.758957 46.985064 175.292917 47.590652 C 175.826877 48.18973 176.666887 48.489268 177.799924 48.489268 Z M 199.132279 55.000976 C 198.780646 55.000976 198.468085 54.877253 198.194593 54.63632 C 197.934124 54.382364 197.80389 54.082825 197.80389 53.724681 L 197.80389 28.009947 C 197.80389 27.619245 197.934124 27.300171 198.194593 27.059238 C 198.468085 26.805281 198.780646 26.681559 199.132279 26.681559 L 206.972375 26.681559 C 207.363077 26.681559 207.682151 26.805281 207.936108 27.059238 C 208.190064 27.300171 208.313787 27.619245 208.313787 28.009947 L 208.313787 29.351359 C 208.704489 28.778329 209.342636 28.237857 210.228229 27.723432 C 211.120333 27.209007 212.116624 26.785746 213.223614 26.447137 C 214.324093 26.108529 215.405036 25.939224 216.466445 25.939224 C 220.021837 25.939224 222.574427 26.831328 224.117701 28.609024 C 225.660976 30.380209 226.435869 32.90024 226.435869 36.175629 L 226.435869 53.724681 C 226.435869 54.082825 226.312147 54.382364 226.05819 54.63632 C 225.817257 54.877253 225.498183 55.000976 225.107481 55.000976 L 217.267385 55.000976 C 216.915753 55.000976 216.603191 54.877253 216.336211 54.63632 C 216.062719 54.382364 215.932485 54.082825 215.932485 53.724681 L 215.932485 37.985884 C 215.932485 36.996104 215.711087 36.234234 215.268291 35.706786 C 214.825494 35.166314 214.304558 34.795147 213.718504 34.586772 C 213.13245 34.365374 212.611514 34.261187 212.155694 34.261187 C 211.647781 34.261187 211.094286 34.365374 210.488697 34.586772 C 209.88962 34.795147 209.375195 35.166314 208.951934 35.706786 C 208.522161 36.234234 208.313787 36.996104 208.313787 37.985884 L 208.313787 53.724681 C 208.313787 54.082825 208.190064 54.382364 207.936108 54.63632 C 207.682151 54.877253 207.363077 55.000976 206.972375 55.000976 Z M 199.132279 55.000976 " stroke="#7ed957" stroke-width="3.266665" stroke-opacity="1" stroke-miterlimit="4"/><path stroke-linecap="butt" transform="matrix(0.599881, 0, 0, 0.599881, 67.720104, 43.462989)" fill="none" stroke-linejoin="miter" d="M 266.867063 53.138628 C 267.186137 53.666076 267.225207 54.108872 266.97125 54.467016 C 266.717294 54.82516 266.365661 55.000976 265.90333 55.000976 L 256.565541 55.000976 C 256.005534 55.000976 255.517156 54.831672 255.11343 54.493063 C 254.703193 54.154454 254.286444 53.685611 253.863183 53.086534 C 253.713413 52.871647 253.361781 52.350711 252.808286 51.536747 C 252.261302 50.722784 251.597108 49.706958 250.815703 48.502292 C 250.034298 47.284602 249.194288 46.027843 248.302184 44.712478 C 247.416592 43.397113 246.583093 42.133841 245.801688 40.922664 L 242.819326 40.922664 L 242.819326 53.672588 C 242.819326 54.030731 242.68258 54.343293 242.4156 54.610273 C 242.14862 54.870742 241.836058 55.000976 241.477914 55.000976 L 233.103858 55.000976 C 232.752226 55.000976 232.439664 54.870742 232.166172 54.610273 C 231.905704 54.343293 231.77547 54.030731 231.77547 53.672588 L 231.77547 18.997744 C 231.77547 18.607041 231.905704 18.294479 232.166172 18.047034 C 232.439664 17.799589 232.752226 17.669355 233.103858 17.669355 L 241.477914 17.669355 C 241.836058 17.669355 242.14862 17.799589 242.4156 18.047034 C 242.68258 18.294479 242.819326 18.607041 242.819326 18.997744 L 242.819326 31.747667 L 245.645407 31.747667 C 246.355183 30.393232 247.077983 28.999727 247.807294 27.567151 C 248.536606 26.128064 249.213823 24.773628 249.851971 23.516869 C 250.490118 22.247086 251.024078 21.211724 251.453851 20.391249 C 251.877112 19.570774 252.105021 19.101931 252.144092 18.997744 C 252.645493 18.112151 253.322711 17.669355 254.175744 17.669355 L 263.715396 17.669355 C 265.206577 17.669355 265.63635 18.242386 265.004715 19.375423 C 264.926574 19.51868 264.646571 20.065664 264.171216 21.029396 C 263.695861 21.986618 263.103296 23.165237 262.387008 24.571766 C 261.677232 25.978294 260.921874 27.462964 260.120934 29.025774 C 259.326505 30.588584 258.571147 32.053718 257.854859 33.427688 C 257.145083 34.795147 256.55903 35.908649 256.096698 36.761682 C 256.526471 37.39983 257.151595 38.350539 257.985094 39.594275 C 258.818592 40.838012 259.717208 42.185935 260.667917 43.644558 C 261.63165 45.096668 262.569336 46.516221 263.467951 47.903214 C 264.379591 49.290208 265.147972 50.468827 265.773096 51.43256 C 266.39822 52.389781 266.762876 52.9563 266.867063 53.138628 Z M 298.702802 26.681559 C 299.093505 26.681559 299.412578 26.805281 299.653512 27.059238 C 299.907468 27.300171 300.031191 27.59971 300.031191 27.957854 L 300.031191 53.672588 C 300.031191 54.030731 299.907468 54.343293 299.653512 54.610273 C 299.412578 54.870742 299.093505 55.000976 298.702802 55.000976 L 290.869218 55.000976 C 290.511074 55.000976 290.198512 54.870742 289.931532 54.610273 C 289.65804 54.343293 289.527806 54.030731 289.527806 53.672588 L 289.527806 52.226988 C 289.137104 52.754437 288.505468 53.288397 287.639411 53.828869 C 286.766842 54.356317 285.783574 54.792601 284.683095 55.13121 C 283.576105 55.469819 282.495162 55.639123 281.427242 55.639123 C 277.865337 55.639123 275.306236 54.753531 273.743426 52.982347 C 272.180616 51.20465 271.399212 48.678108 271.399212 45.402719 L 271.399212 27.957854 C 271.399212 27.59971 271.529446 27.300171 271.789914 27.059238 C 272.063406 26.805281 272.375968 26.681559 272.7276 26.681559 L 280.61979 26.681559 C 280.977934 26.681559 281.277472 26.805281 281.531429 27.059238 C 281.785385 27.300171 281.909108 27.59971 281.909108 27.957854 L 281.909108 43.527347 C 281.909108 44.53015 282.130506 45.305043 282.573302 45.858538 C 283.016098 46.405522 283.537035 46.789712 284.136112 47.004599 C 284.741701 47.212973 285.282173 47.317161 285.751015 47.317161 C 286.245905 47.317161 286.779865 47.212973 287.365919 47.004599 C 287.951973 46.789712 288.459886 46.405522 288.889659 45.858538 C 289.31292 45.305043 289.527806 44.53015 289.527806 43.527347 L 289.527806 27.957854 C 289.527806 27.59971 289.65804 27.300171 289.931532 27.059238 C 290.198512 26.805281 290.511074 26.681559 290.869218 26.681559 Z M 298.702802 26.681559 " stroke="#7ed957" stroke-width="3.266665" stroke-opacity="1" stroke-miterlimit="4"/><g fill="#ffffff" fill-opacity="1"><g transform="translate(80.073904, 76.456446)"><g><path d="M 10.421875 -22.390625 C 12.640625 -22.390625 14.515625 -22.015625 16.046875 -21.265625 C 17.585938 -20.523438 18.75 -19.519531 19.53125 -18.25 C 20.320312 -16.976562 20.71875 -15.539062 20.71875 -13.9375 C 20.71875 -12.8125 20.535156 -11.710938 20.171875 -10.640625 C 19.816406 -9.578125 19.234375 -8.625 18.421875 -7.78125 C 17.609375 -6.945312 16.546875 -6.28125 15.234375 -5.78125 C 13.929688 -5.289062 12.328125 -5.046875 10.421875 -5.046875 L 8.21875 -5.046875 L 8.21875 -0.796875 C 8.21875 -0.585938 8.132812 -0.398438 7.96875 -0.234375 C 7.8125 -0.078125 7.628906 0 7.421875 0 L 2.40625 0 C 2.1875 0 1.992188 -0.078125 1.828125 -0.234375 C 1.671875 -0.398438 1.59375 -0.585938 1.59375 -0.796875 L 1.59375 -21.59375 C 1.59375 -21.800781 1.671875 -21.984375 1.828125 -22.140625 C 1.992188 -22.304688 2.1875 -22.390625 2.40625 -22.390625 Z M 10.015625 -10.5625 C 10.890625 -10.5625 11.585938 -10.679688 12.109375 -10.921875 C 12.628906 -11.171875 13.019531 -11.476562 13.28125 -11.84375 C 13.550781 -12.21875 13.726562 -12.585938 13.8125 -12.953125 C 13.894531 -13.316406 13.9375 -13.625 13.9375 -13.875 C 13.9375 -14.21875 13.835938 -14.625 13.640625 -15.09375 C 13.441406 -15.5625 13.054688 -15.976562 12.484375 -16.34375 C 11.921875 -16.707031 11.078125 -16.890625 9.953125 -16.890625 L 8.21875 -16.890625 L 8.21875 -10.5625 Z M 10.015625 -10.5625 "/></g></g></g><g fill="#ffffff" fill-opacity="1"><g transform="translate(102.083348, 76.456446)"><g><path d="M 18.171875 -11.890625 C 18.191406 -11.765625 18.203125 -11.640625 18.203125 -11.515625 C 18.203125 -11.390625 18.203125 -11.257812 18.203125 -11.125 L 18.203125 -0.796875 C 18.203125 -0.585938 18.125 -0.398438 17.96875 -0.234375 C 17.820312 -0.078125 17.632812 0 17.40625 0 L 12.703125 0 C 12.484375 0 12.289062 -0.078125 12.125 -0.234375 C 11.96875 -0.398438 11.890625 -0.585938 11.890625 -0.796875 L 11.890625 -1.4375 C 11.316406 -0.820312 10.535156 -0.363281 9.546875 -0.0625 C 8.554688 0.238281 7.613281 0.390625 6.71875 0.390625 C 6.457031 0.390625 6.054688 0.332031 5.515625 0.21875 C 4.972656 0.113281 4.394531 -0.09375 3.78125 -0.40625 C 3.175781 -0.726562 2.660156 -1.207031 2.234375 -1.84375 C 1.804688 -2.488281 1.59375 -3.34375 1.59375 -4.40625 C 1.59375 -5.644531 1.847656 -6.671875 2.359375 -7.484375 C 2.878906 -8.296875 3.53125 -8.925781 4.3125 -9.375 C 5.101562 -9.820312 5.90625 -10.109375 6.71875 -10.234375 C 7.53125 -10.335938 8.429688 -10.421875 9.421875 -10.484375 C 10.410156 -10.554688 11.234375 -10.601562 11.890625 -10.625 C 11.890625 -10.9375 11.828125 -11.257812 11.703125 -11.59375 C 11.578125 -11.925781 11.34375 -12.203125 11 -12.421875 C 10.65625 -12.648438 10.132812 -12.765625 9.4375 -12.765625 C 8.476562 -12.765625 7.578125 -12.628906 6.734375 -12.359375 C 5.890625 -12.097656 5.234375 -11.867188 4.765625 -11.671875 C 4.378906 -11.523438 4.113281 -11.625 3.96875 -11.96875 C 3.925781 -12.050781 3.84375 -12.226562 3.71875 -12.5 C 3.601562 -12.78125 3.476562 -13.085938 3.34375 -13.421875 C 3.207031 -13.765625 3.082031 -14.070312 2.96875 -14.34375 C 2.863281 -14.613281 2.800781 -14.78125 2.78125 -14.84375 C 2.738281 -14.96875 2.726562 -15.117188 2.75 -15.296875 C 2.769531 -15.484375 2.878906 -15.617188 3.078125 -15.703125 C 3.429688 -15.890625 3.953125 -16.125 4.640625 -16.40625 C 5.335938 -16.6875 6.15625 -16.925781 7.09375 -17.125 C 8.039062 -17.332031 9.066406 -17.4375 10.171875 -17.4375 C 11.429688 -17.4375 12.640625 -17.25 13.796875 -16.875 C 14.960938 -16.5 15.941406 -15.90625 16.734375 -15.09375 C 17.535156 -14.28125 18.015625 -13.210938 18.171875 -11.890625 Z M 9.71875 -3.90625 C 10.40625 -3.90625 10.894531 -4.039062 11.1875 -4.3125 C 11.488281 -4.59375 11.679688 -4.867188 11.765625 -5.140625 C 11.847656 -5.421875 11.890625 -5.5625 11.890625 -5.5625 L 11.890625 -7.515625 C 11.890625 -7.515625 11.671875 -7.515625 11.234375 -7.515625 C 10.804688 -7.515625 10.320312 -7.472656 9.78125 -7.390625 C 9.25 -7.304688 8.828125 -7.132812 8.515625 -6.875 C 8.109375 -6.570312 7.875 -6.179688 7.8125 -5.703125 C 7.757812 -5.222656 7.894531 -4.800781 8.21875 -4.4375 C 8.539062 -4.082031 9.039062 -3.90625 9.71875 -3.90625 Z M 9.71875 -3.90625 "/></g></g></g><g fill="#ffffff" fill-opacity="1"><g transform="translate(122.205368, 76.456446)"><g><path d="M 2.40625 0 C 2.1875 0 1.992188 -0.0703125 1.828125 -0.21875 C 1.671875 -0.375 1.59375 -0.554688 1.59375 -0.765625 L 1.59375 -16.1875 C 1.59375 -16.414062 1.671875 -16.601562 1.828125 -16.75 C 1.992188 -16.90625 2.1875 -16.984375 2.40625 -16.984375 L 7.09375 -16.984375 C 7.332031 -16.984375 7.523438 -16.90625 7.671875 -16.75 C 7.828125 -16.601562 7.90625 -16.414062 7.90625 -16.1875 L 7.90625 -15.390625 C 8.132812 -15.722656 8.515625 -16.046875 9.046875 -16.359375 C 9.578125 -16.671875 10.171875 -16.925781 10.828125 -17.125 C 11.492188 -17.332031 12.148438 -17.4375 12.796875 -17.4375 C 14.921875 -17.4375 16.445312 -16.898438 17.375 -15.828125 C 18.3125 -14.765625 18.78125 -13.253906 18.78125 -11.296875 L 18.78125 -0.765625 C 18.78125 -0.554688 18.703125 -0.375 18.546875 -0.21875 C 18.398438 -0.0703125 18.207031 0 17.96875 0 L 13.28125 0 C 13.0625 0 12.867188 -0.0703125 12.703125 -0.21875 C 12.546875 -0.375 12.46875 -0.554688 12.46875 -0.765625 L 12.46875 -10.203125 C 12.46875 -10.796875 12.332031 -11.253906 12.0625 -11.578125 C 11.800781 -11.898438 11.492188 -12.125 11.140625 -12.25 C 10.796875 -12.375 10.484375 -12.4375 10.203125 -12.4375 C 9.898438 -12.4375 9.566406 -12.375 9.203125 -12.25 C 8.847656 -12.125 8.539062 -11.898438 8.28125 -11.578125 C 8.03125 -11.253906 7.90625 -10.796875 7.90625 -10.203125 L 7.90625 -0.765625 C 7.90625 -0.554688 7.828125 -0.375 7.671875 -0.21875 C 7.523438 -0.0703125 7.332031 0 7.09375 0 Z M 2.40625 0 "/></g></g></g><g fill="#ffffff" fill-opacity="1"><g transform="translate(142.263387, 76.456446)"><g><path d="M 19.984375 -16.984375 C 20.203125 -16.984375 20.390625 -16.90625 20.546875 -16.75 C 20.710938 -16.601562 20.796875 -16.414062 20.796875 -16.1875 L 20.796875 -2.078125 C 20.796875 0.460938 20.347656 2.523438 19.453125 4.109375 C 18.554688 5.703125 16.96875 6.835938 14.6875 7.515625 C 13.957031 7.734375 13.0625 7.894531 12 8 C 10.945312 8.101562 9.984375 8.113281 9.109375 8.03125 C 8.003906 7.925781 6.882812 7.6875 5.75 7.3125 C 4.625 6.9375 3.59375 6.453125 2.65625 5.859375 C 2.507812 5.742188 2.394531 5.601562 2.3125 5.4375 C 2.238281 5.269531 2.242188 5.054688 2.328125 4.796875 C 2.398438 4.671875 2.519531 4.40625 2.6875 4 C 2.851562 3.59375 3.023438 3.179688 3.203125 2.765625 C 3.390625 2.347656 3.503906 2.085938 3.546875 1.984375 C 3.671875 1.742188 3.832031 1.609375 4.03125 1.578125 C 4.238281 1.546875 4.453125 1.582031 4.671875 1.6875 C 5.421875 2.03125 6.125 2.363281 6.78125 2.6875 C 7.4375 3.007812 8.148438 3.191406 8.921875 3.234375 C 10.734375 3.335938 12.09375 3.085938 13 2.484375 C 13.90625 1.890625 14.378906 1.164062 14.421875 0.3125 C 14.460938 -0.101562 14.484375 -0.441406 14.484375 -0.703125 C 14.484375 -0.960938 14.484375 -1.09375 14.484375 -1.09375 C 14.191406 -0.894531 13.878906 -0.707031 13.546875 -0.53125 C 13.210938 -0.363281 12.875 -0.21875 12.53125 -0.09375 C 11.6875 0.226562 10.757812 0.390625 9.75 0.390625 C 8.75 0.390625 7.832031 0.226562 7 -0.09375 C 5.695312 -0.582031 4.609375 -1.363281 3.734375 -2.4375 C 3.078125 -3.238281 2.554688 -4.160156 2.171875 -5.203125 C 1.785156 -6.253906 1.59375 -7.367188 1.59375 -8.546875 C 1.59375 -10.179688 1.941406 -11.671875 2.640625 -13.015625 C 3.347656 -14.359375 4.316406 -15.429688 5.546875 -16.234375 C 6.773438 -17.035156 8.175781 -17.4375 9.75 -17.4375 C 10.332031 -17.4375 10.941406 -17.332031 11.578125 -17.125 C 12.210938 -16.925781 12.796875 -16.664062 13.328125 -16.34375 C 13.867188 -16.019531 14.253906 -15.703125 14.484375 -15.390625 L 14.484375 -16.1875 C 14.484375 -16.414062 14.554688 -16.601562 14.703125 -16.75 C 14.859375 -16.90625 15.039062 -16.984375 15.25 -16.984375 Z M 11.125 -12.4375 C 10.300781 -12.4375 9.648438 -12.207031 9.171875 -11.75 C 8.703125 -11.289062 8.375 -10.757812 8.1875 -10.15625 C 8 -9.550781 7.90625 -9.015625 7.90625 -8.546875 C 7.90625 -7.347656 8.207031 -6.398438 8.8125 -5.703125 C 9.414062 -5.015625 10.1875 -4.671875 11.125 -4.671875 C 12.21875 -4.671875 13.050781 -5.054688 13.625 -5.828125 C 14.195312 -6.609375 14.484375 -7.515625 14.484375 -8.546875 C 14.484375 -9.035156 14.390625 -9.582031 14.203125 -10.1875 C 14.023438 -10.789062 13.695312 -11.316406 13.21875 -11.765625 C 12.738281 -12.210938 12.039062 -12.4375 11.125 -12.4375 Z M 11.125 -12.4375 "/></g></g></g><g fill="#ffffff" fill-opacity="1"><g transform="translate(164.656718, 76.456446)"><g><path d="M 18.171875 -11.890625 C 18.191406 -11.765625 18.203125 -11.640625 18.203125 -11.515625 C 18.203125 -11.390625 18.203125 -11.257812 18.203125 -11.125 L 18.203125 -0.796875 C 18.203125 -0.585938 18.125 -0.398438 17.96875 -0.234375 C 17.820312 -0.078125 17.632812 0 17.40625 0 L 12.703125 0 C 12.484375 0 12.289062 -0.078125 12.125 -0.234375 C 11.96875 -0.398438 11.890625 -0.585938 11.890625 -0.796875 L 11.890625 -1.4375 C 11.316406 -0.820312 10.535156 -0.363281 9.546875 -0.0625 C 8.554688 0.238281 7.613281 0.390625 6.71875 0.390625 C 6.457031 0.390625 6.054688 0.332031 5.515625 0.21875 C 4.972656 0.113281 4.394531 -0.09375 3.78125 -0.40625 C 3.175781 -0.726562 2.660156 -1.207031 2.234375 -1.84375 C 1.804688 -2.488281 1.59375 -3.34375 1.59375 -4.40625 C 1.59375 -5.644531 1.847656 -6.671875 2.359375 -7.484375 C 2.878906 -8.296875 3.53125 -8.925781 4.3125 -9.375 C 5.101562 -9.820312 5.90625 -10.109375 6.71875 -10.234375 C 7.53125 -10.335938 8.429688 -10.421875 9.421875 -10.484375 C 10.410156 -10.554688 11.234375 -10.601562 11.890625 -10.625 C 11.890625 -10.9375 11.828125 -11.257812 11.703125 -11.59375 C 11.578125 -11.925781 11.34375 -12.203125 11 -12.421875 C 10.65625 -12.648438 10.132812 -12.765625 9.4375 -12.765625 C 8.476562 -12.765625 7.578125 -12.628906 6.734375 -12.359375 C 5.890625 -12.097656 5.234375 -11.867188 4.765625 -11.671875 C 4.378906 -11.523438 4.113281 -11.625 3.96875 -11.96875 C 3.925781 -12.050781 3.84375 -12.226562 3.71875 -12.5 C 3.601562 -12.78125 3.476562 -13.085938 3.34375 -13.421875 C 3.207031 -13.765625 3.082031 -14.070312 2.96875 -14.34375 C 2.863281 -14.613281 2.800781 -14.78125 2.78125 -14.84375 C 2.738281 -14.96875 2.726562 -15.117188 2.75 -15.296875 C 2.769531 -15.484375 2.878906 -15.617188 3.078125 -15.703125 C 3.429688 -15.890625 3.953125 -16.125 4.640625 -16.40625 C 5.335938 -16.6875 6.15625 -16.925781 7.09375 -17.125 C 8.039062 -17.332031 9.066406 -17.4375 10.171875 -17.4375 C 11.429688 -17.4375 12.640625 -17.25 13.796875 -16.875 C 14.960938 -16.5 15.941406 -15.90625 16.734375 -15.09375 C 17.535156 -14.28125 18.015625 -13.210938 18.171875 -11.890625 Z M 9.71875 -3.90625 C 10.40625 -3.90625 10.894531 -4.039062 11.1875 -4.3125 C 11.488281 -4.59375 11.679688 -4.867188 11.765625 -5.140625 C 11.847656 -5.421875 11.890625 -5.5625 11.890625 -5.5625 L 11.890625 -7.515625 C 11.890625 -7.515625 11.671875 -7.515625 11.234375 -7.515625 C 10.804688 -7.515625 10.320312 -7.472656 9.78125 -7.390625 C 9.25 -7.304688 8.828125 -7.132812 8.515625 -6.875 C 8.109375 -6.570312 7.875 -6.179688 7.8125 -5.703125 C 7.757812 -5.222656 7.894531 -4.800781 8.21875 -4.4375 C 8.539062 -4.082031 9.039062 -3.90625 9.71875 -3.90625 Z M 9.71875 -3.90625 "/></g></g></g><g fill="#ffffff" fill-opacity="1"><g transform="translate(184.778737, 76.456446)"><g><path d="M 2.40625 0 C 2.1875 0 1.992188 -0.0703125 1.828125 -0.21875 C 1.671875 -0.375 1.59375 -0.554688 1.59375 -0.765625 L 1.59375 -16.1875 C 1.59375 -16.414062 1.671875 -16.601562 1.828125 -16.75 C 1.992188 -16.90625 2.1875 -16.984375 2.40625 -16.984375 L 7.09375 -16.984375 C 7.332031 -16.984375 7.523438 -16.90625 7.671875 -16.75 C 7.828125 -16.601562 7.90625 -16.414062 7.90625 -16.1875 L 7.90625 -15.390625 C 8.132812 -15.722656 8.515625 -16.046875 9.046875 -16.359375 C 9.578125 -16.671875 10.171875 -16.925781 10.828125 -17.125 C 11.492188 -17.332031 12.148438 -17.4375 12.796875 -17.4375 C 14.921875 -17.4375 16.445312 -16.898438 17.375 -15.828125 C 18.3125 -14.765625 18.78125 -13.253906 18.78125 -11.296875 L 18.78125 -0.765625 C 18.78125 -0.554688 18.703125 -0.375 18.546875 -0.21875 C 18.398438 -0.0703125 18.207031 0 17.96875 0 L 13.28125 0 C 13.0625 0 12.867188 -0.0703125 12.703125 -0.21875 C 12.546875 -0.375 12.46875 -0.554688 12.46875 -0.765625 L 12.46875 -10.203125 C 12.46875 -10.796875 12.332031 -11.253906 12.0625 -11.578125 C 11.800781 -11.898438 11.492188 -12.125 11.140625 -12.25 C 10.796875 -12.375 10.484375 -12.4375 10.203125 -12.4375 C 9.898438 -12.4375 9.566406 -12.375 9.203125 -12.25 C 8.847656 -12.125 8.539062 -11.898438 8.28125 -11.578125 C 8.03125 -11.253906 7.90625 -10.796875 7.90625 -10.203125 L 7.90625 -0.765625 C 7.90625 -0.554688 7.828125 -0.375 7.671875 -0.21875 C 7.523438 -0.0703125 7.332031 0 7.09375 0 Z M 2.40625 0 "/></g></g></g><g fill="#7ed957" fill-opacity="1"><g transform="translate(205.158476, 76.456446)"><g><path d="M 22.640625 -1.125 C 22.835938 -0.800781 22.859375 -0.53125 22.703125 -0.3125 C 22.554688 -0.101562 22.34375 0 22.0625 0 L 16.46875 0 C 16.125 0 15.828125 -0.0976562 15.578125 -0.296875 C 15.335938 -0.503906 15.09375 -0.789062 14.84375 -1.15625 C 14.757812 -1.28125 14.550781 -1.585938 14.21875 -2.078125 C 13.882812 -2.566406 13.484375 -3.171875 13.015625 -3.890625 C 12.546875 -4.617188 12.046875 -5.378906 11.515625 -6.171875 C 10.984375 -6.960938 10.484375 -7.71875 10.015625 -8.4375 L 8.21875 -8.4375 L 8.21875 -0.796875 C 8.21875 -0.585938 8.132812 -0.398438 7.96875 -0.234375 C 7.8125 -0.078125 7.628906 0 7.421875 0 L 2.40625 0 C 2.1875 0 1.992188 -0.078125 1.828125 -0.234375 C 1.671875 -0.398438 1.59375 -0.585938 1.59375 -0.796875 L 1.59375 -21.59375 C 1.59375 -21.820312 1.671875 -22.007812 1.828125 -22.15625 C 1.992188 -22.3125 2.1875 -22.390625 2.40625 -22.390625 L 7.421875 -22.390625 C 7.628906 -22.390625 7.8125 -22.3125 7.96875 -22.15625 C 8.132812 -22.007812 8.21875 -21.820312 8.21875 -21.59375 L 8.21875 -13.9375 L 9.921875 -13.9375 C 10.347656 -14.75 10.773438 -15.585938 11.203125 -16.453125 C 11.640625 -17.316406 12.050781 -18.125 12.4375 -18.875 C 12.820312 -19.632812 13.140625 -20.257812 13.390625 -20.75 C 13.648438 -21.25 13.789062 -21.53125 13.8125 -21.59375 C 14.113281 -22.125 14.519531 -22.390625 15.03125 -22.390625 L 20.765625 -22.390625 C 21.648438 -22.390625 21.90625 -22.046875 21.53125 -21.359375 C 21.488281 -21.273438 21.320312 -20.945312 21.03125 -20.375 C 20.738281 -19.800781 20.378906 -19.09375 19.953125 -18.25 C 19.523438 -17.40625 19.070312 -16.515625 18.59375 -15.578125 C 18.113281 -14.640625 17.660156 -13.757812 17.234375 -12.9375 C 16.804688 -12.113281 16.457031 -11.445312 16.1875 -10.9375 C 16.4375 -10.550781 16.8125 -9.984375 17.3125 -9.234375 C 17.820312 -8.492188 18.363281 -7.6875 18.9375 -6.8125 C 19.507812 -5.9375 20.066406 -5.082031 20.609375 -4.25 C 21.148438 -3.414062 21.609375 -2.710938 21.984375 -2.140625 C 22.359375 -1.566406 22.578125 -1.226562 22.640625 -1.125 Z M 22.640625 -1.125 "/></g></g></g><g fill="#7ed957" fill-opacity="1"><g transform="translate(228.927371, 76.456446)"><g><path d="M 17.96875 -16.984375 C 18.207031 -16.984375 18.398438 -16.90625 18.546875 -16.75 C 18.703125 -16.601562 18.78125 -16.425781 18.78125 -16.21875 L 18.78125 -0.796875 C 18.78125 -0.585938 18.703125 -0.398438 18.546875 -0.234375 C 18.398438 -0.078125 18.207031 0 17.96875 0 L 13.28125 0 C 13.0625 0 12.867188 -0.078125 12.703125 -0.234375 C 12.546875 -0.398438 12.46875 -0.585938 12.46875 -0.796875 L 12.46875 -1.65625 C 12.238281 -1.34375 11.863281 -1.023438 11.34375 -0.703125 C 10.820312 -0.378906 10.226562 -0.117188 9.5625 0.078125 C 8.90625 0.285156 8.253906 0.390625 7.609375 0.390625 C 5.472656 0.390625 3.9375 -0.140625 3 -1.203125 C 2.0625 -2.273438 1.59375 -3.789062 1.59375 -5.75 L 1.59375 -16.21875 C 1.59375 -16.425781 1.671875 -16.601562 1.828125 -16.75 C 1.992188 -16.90625 2.1875 -16.984375 2.40625 -16.984375 L 7.125 -16.984375 C 7.34375 -16.984375 7.523438 -16.90625 7.671875 -16.75 C 7.828125 -16.601562 7.90625 -16.425781 7.90625 -16.21875 L 7.90625 -6.875 C 7.90625 -6.28125 8.035156 -5.816406 8.296875 -5.484375 C 8.566406 -5.148438 8.878906 -4.921875 9.234375 -4.796875 C 9.597656 -4.671875 9.921875 -4.609375 10.203125 -4.609375 C 10.503906 -4.609375 10.828125 -4.671875 11.171875 -4.796875 C 11.523438 -4.921875 11.828125 -5.148438 12.078125 -5.484375 C 12.335938 -5.816406 12.46875 -6.28125 12.46875 -6.875 L 12.46875 -16.21875 C 12.46875 -16.425781 12.546875 -16.601562 12.703125 -16.75 C 12.867188 -16.90625 13.0625 -16.984375 13.28125 -16.984375 Z M 17.96875 -16.984375 "/></g></g></g></svg>